<svg width="1024" height="1024" viewBox="0 0 1024 1024" fill="none" xmlns="http://www.w3.org/2000/svg">
<g clip-path="url(#clip0_1567_67)">
<rect width="1024" height="1024" fill="white"/>
<path d="M-3.84 680.96L1029.12 600.32L1153.28 1236.48H-3.84V680.96Z" fill="#EB5D1D"/>
<path d="M-19.0289 95.8164C-137.229 233.888 -186.268 369.54 -139.061 473.116C-40.3041 689.797 435.17 825.696 930.732 599.833C1020.52 558.908 1104.81 508.895 1182.05 453.146C1065 577.908 914.743 692.659 742.701 771.071C267.324 987.734 -194.203 845.479 -292.959 628.799C-358.935 484.043 -244.227 279.966 -19.0289 95.8164Z" fill="#EB5D1D"/>
<path d="M1081.84 579.975C1083.04 625.116 804.969 693.658 504.416 701.684C203.863 709.71 -5.43085 654.289 -6.63914 609.043C-7.84744 563.796 234.828 520.965 535.462 512.936C836.095 504.908 1080.64 535.26 1081.84 579.975Z" fill="white"/>
<path d="M863.901 314.701C847.436 324.161 830.401 332.592 812.893 339.946C787.871 351.198 745.303 373.26 629.74 398.43C619.968 388.584 607.53 379.775 596.796 370.817C621.448 365.857 646.693 363.414 671.567 358.676C736.506 347.906 800.734 333.221 863.901 314.701Z" fill="#0A1934"/>
<path d="M406.895 360.968C406.895 365.928 840.794 278.645 866.631 270.279C882.325 267.392 898.093 263.839 913.862 261.544V259.841V262.284L917.416 261.173V260.285L916.675 261.692H915.565C910.037 263.127 904.618 264.958 899.352 267.17L859.967 280.496C812.81 296.042 764.911 315.068 717.087 328.542C665.265 343.348 613.961 351.64 561.621 362.152C542.373 366.002 521.792 367.26 502.988 372.22C490.107 359.635 419.185 373.479 406.895 360.968Z" fill="#0A1934"/>
<path d="M765.353 581.731C748.436 575.203 730.284 572.498 712.199 573.809C727.719 535.197 731.555 492.876 723.229 452.102C722.227 443.709 718.449 435.892 712.495 429.892C707.055 426.265 701.051 423.563 694.727 421.897C670.741 412.643 651.715 393.173 630.098 379.329C603.225 362.154 572.798 356.231 541.26 354.232C492.474 351.197 442.428 349.642 395.863 364.597C350.852 379.033 311.615 408.349 266.382 422.341C233.438 432.557 198.199 434.334 165.773 446.179C149.21 451.486 134.514 461.428 123.427 474.829C103.069 502.147 109.213 540.569 118.985 573.291C115.588 573.195 112.19 573.443 108.843 574.031C105.358 574.462 101.898 575.08 98.4785 575.882C94.4067 576.845 86.1153 577.437 86.0413 583.285C85.9672 589.134 93.8887 588.764 97.9604 589.43C105.364 590.614 112.248 591.725 119.429 592.761C148.006 597.055 176.705 600.683 205.528 603.644C234.351 606.605 263.174 608.9 291.997 610.529C320.869 612.207 349.79 613.317 378.761 613.86C407.708 614.379 436.728 614.379 465.674 613.86C494.62 613.342 523.641 612.306 552.587 610.899C581.533 609.493 610.406 607.494 639.352 605.125L683.03 601.349C711.902 598.61 741.293 595.352 767.5 582.989L765.353 581.731Z" fill="#0A1934"/>
<path d="M157.556 484.816C163.285 488.981 168.704 493.559 173.769 498.512C168.728 497.31 163.958 495.176 159.703 492.219C158.962 489.776 158.222 487.333 157.556 484.816Z" fill="white"/>
<path d="M142.975 470.171C143.826 470.274 144.652 470.525 145.418 470.911C146.106 471.271 146.716 471.763 147.211 472.361C147.707 472.958 148.079 473.648 148.305 474.391C148.604 475.444 148.679 476.547 148.526 477.631C148.373 478.715 147.995 479.754 147.417 480.683C146.905 481.57 146.2 482.33 145.354 482.907C144.508 483.484 143.543 483.862 142.53 484.015C141.625 483.95 140.73 483.776 139.865 483.497C139.177 483.229 138.551 482.821 138.029 482.298C137.506 481.775 137.098 481.15 136.83 480.461C136.484 479.641 136.306 478.76 136.306 477.87C136.306 476.98 136.484 476.099 136.83 475.279C137.364 473.993 138.202 472.857 139.272 471.967C140.342 471.077 141.613 470.461 142.975 470.171Z" fill="white"/>
<path d="M378.243 478.166H378.91C378.895 481.348 378.162 484.487 376.763 487.346C376.441 488.299 375.908 489.168 375.203 489.886C374.497 490.604 373.639 491.153 372.691 491.491C371.8 491.652 370.884 491.609 370.013 491.365C369.141 491.122 368.335 490.684 367.657 490.085C366.214 488.994 365.09 487.537 364.399 485.865C364.157 484.939 364.289 483.954 364.77 483.126C366.62 480.165 374.838 479.424 378.243 478.166Z" fill="white"/>
<path d="M694.579 516.441C697.244 519.254 699.909 522.067 702.426 524.955C704.425 531.395 699.539 542.204 697.244 548.274V547.016C696.208 542.87 692.728 519.254 694.579 516.441Z" fill="white"/>
<path d="M547.178 528.141C548.107 535.044 548.107 542.04 547.178 548.944C543.625 546.871 540.219 544.576 536.814 542.355C533.408 540.134 531.928 539.616 529.411 538.357C535.653 535.54 541.604 532.118 547.178 528.141Z" fill="white"/>
<path d="M361.817 483.716C361.782 483.862 361.782 484.014 361.817 484.16C361.806 484.61 361.701 485.053 361.51 485.461C361.319 485.869 361.045 486.232 360.706 486.529C352.534 492.026 343.888 496.783 334.87 500.743C330.411 501.411 325.889 501.56 321.396 501.187V500.447C334.27 493.52 347.813 487.915 361.817 483.716Z" fill="white"/>
<path d="M421.851 467.131C422.255 469.804 421.949 472.536 420.962 475.052C419.078 481.724 414.741 487.436 408.821 491.043C405.664 492.73 401.975 493.128 398.531 492.153C396.921 491.482 395.474 490.475 394.286 489.198C393.099 487.921 392.199 486.404 391.646 484.75C390.832 481.218 390.832 477.548 391.646 474.016C394.755 472.905 398.161 472.313 401.344 471.499C400.951 474.288 401.639 477.122 403.269 479.42C403.705 479.641 404.187 479.756 404.675 479.756C405.164 479.756 405.646 479.641 406.082 479.42C409.71 478.013 411.783 472.017 412.819 468.834C415.928 468.389 418.89 467.797 421.851 467.131Z" fill="white"/>
<path d="M709.096 535.898L710.429 536.564H710.873C710.873 535.75 710.873 534.861 710.429 533.973C710.333 533.387 710.377 532.786 710.557 532.22C710.737 531.654 711.048 531.139 711.465 530.715C713.859 528.145 716.724 526.059 719.905 524.571C722.2 528.568 719.905 541.228 719.09 545.744C718.329 552.32 715.291 558.422 710.503 562.993C709.895 563.386 709.207 563.636 708.489 563.726C707.771 563.815 707.043 563.742 706.357 563.511C702.804 562.401 700.805 558.329 698.954 555.294C700.203 552.93 701.219 550.451 701.989 547.891C701.119 549.73 700.13 551.511 699.028 553.221H698.362C696.289 548.113 701.397 546.188 702.285 541.82C702.758 537.496 703.752 533.246 705.246 529.161C705.987 529.901 705.839 530.715 705.987 531.752C707.32 532.196 707.911 532.196 708.43 533.677C708.699 534.402 708.922 535.144 709.096 535.898Z" fill="white"/>
<path d="M706.136 531.246C707.469 531.69 708.061 531.69 708.579 533.171C708.83 534.117 709.003 535.083 709.098 536.058L710.578 537.687C713.401 542.62 714.857 548.216 714.798 553.899V554.344C713.243 550.494 712.947 544.646 709.246 542.351C708.905 544.807 708.905 547.298 709.246 549.754C708.325 552.791 706.979 555.682 705.248 558.341C704.971 555.702 705.223 553.035 705.988 550.494C704.63 544.144 704.68 537.574 706.136 531.246Z" fill="#19223C"/>
<path d="M698.293 488.148C698.421 484.978 699.477 481.915 701.329 479.338C702.412 477.774 704.056 476.688 705.919 476.303C707.393 476.111 708.884 476.51 710.065 477.414C717.468 482.818 719.615 498.142 720.429 506.36C720.9 511.284 720.9 516.242 720.429 521.166C719.873 519.677 719.003 518.325 717.879 517.201C716.755 516.077 715.403 515.208 713.914 514.651C712.702 514.169 711.351 514.169 710.139 514.651C708.658 515.466 708.14 516.946 707.326 518.427L706.807 515.244C704.667 517.68 703.484 520.81 703.476 524.053L702.366 524.794C699.848 521.906 697.183 519.093 694.518 516.28C694.22 506.759 695.495 497.254 698.293 488.148Z" fill="white"/>
<path d="M698.283 488.148C702.463 493.358 704.759 499.828 704.797 506.508C704.642 508.518 704.792 510.539 705.242 512.505C708.795 505.62 703.835 491.109 706.945 487.186C709.061 491.837 710.171 496.882 710.202 501.992C712.719 499.031 715.088 495.996 717.605 492.96C715.976 500.363 714.2 510.58 707.241 515.17C705.101 517.606 703.917 520.736 703.909 523.979L702.799 524.72C700.282 521.832 697.617 519.019 694.952 516.206C694.517 506.734 695.643 497.255 698.283 488.148Z" fill="#19223C"/>
<path d="M694.591 516.425C694.285 506.957 695.535 497.503 698.293 488.441C701.271 495.792 702.926 503.611 703.179 511.539C702.306 510.173 701.174 508.991 699.847 508.059C699.181 508.059 698.811 508.059 698.367 508.059C696.442 510.058 696.664 513.76 694.591 516.425Z" fill="white"/>
<path d="M518.464 478.672C522.191 478.621 525.823 479.849 528.754 482.152C540.155 490.666 544.745 510.062 546.818 523.239C539.785 526.497 532.53 529.31 525.423 532.567C528.384 522.055 530.235 511.246 533.27 500.734C531.888 497.267 530.125 493.965 528.014 490.888C526.746 495.609 525.782 500.406 525.127 505.25C523.72 512.653 522.091 520.648 521.425 528.422C518.359 514.681 515.987 500.795 514.318 486.816C511.663 489.089 509.188 491.564 506.915 494.219C510.839 506.434 513.059 519.612 515.725 532.123C510.037 525.954 503.764 520.351 496.995 515.392C496.254 518.847 495.588 522.326 494.996 525.83C501.289 529.754 507.285 534.344 513.281 538.712C507.501 543.587 501.472 548.158 495.218 552.408L497.587 563.068C504.028 558.404 509.21 551.815 515.503 546.855L514.688 551.445C512.763 561.958 510.246 572.47 508.099 583.057C510.032 585.423 512.302 587.494 514.836 589.201C516.254 576.14 518.38 563.166 521.203 550.335C522.313 556.183 524.164 561.958 525.423 567.732C526.681 573.507 527.2 578.689 528.532 584.019C530.8 580.421 532.638 576.57 534.01 572.544L525.645 544.708C533.048 547.966 539.711 551.149 546.892 554.036C545.29 566.196 541.017 577.851 534.38 588.165C532.894 590.598 530.937 592.709 528.623 594.374C526.309 596.039 523.686 597.226 520.907 597.863C517.183 598.308 513.434 597.271 510.468 594.976C499.216 586.906 493.737 569.657 491.442 556.702C487.815 535.529 489.592 507.175 502.547 489.185C504.356 486.452 506.699 484.112 509.433 482.306C512.168 480.499 515.24 479.264 518.464 478.672Z" fill="white"/>
<path d="M444.436 375.767C480.96 374.33 517.541 376.015 553.78 380.801C540.861 395.876 529.731 412.396 520.614 430.032L403.274 427.589C366.258 427.589 328.65 426.256 291.561 427.959C303.258 418.261 359.077 382.8 372.477 379.617C379.436 378.288 386.493 377.545 393.576 377.396C410.677 376.507 427.556 375.767 444.436 375.767Z" fill="white"/>
<path d="M464.57 365.482C494.203 364.388 523.875 365.18 553.408 367.851C560.218 368.517 567.029 369.553 573.914 370.368C581.933 370.742 589.906 371.782 597.752 373.477C611.63 378.084 624.827 384.533 636.989 392.651C647.85 399.699 658.282 407.387 668.23 415.675C673.362 420.43 678.83 424.809 684.591 428.778H685.109C691.898 427.971 698.76 429.484 704.58 433.072C716.943 442.918 718.794 468.163 720.644 482.821C719.195 477.439 716.678 472.404 713.241 468.015C712.274 466.742 711.049 465.688 709.645 464.922C708.241 464.157 706.692 463.697 705.098 463.573C685.109 462.981 681.63 539.159 672.598 547.155C670.443 548.804 667.888 549.852 665.195 550.19C659.604 551.038 653.968 551.557 648.316 551.745C640.542 552.411 632.917 553.225 625.218 554.41C608.265 556.853 591.386 560.184 574.432 563.071C567.34 564.913 560.065 565.956 552.741 566.181C559.125 564.014 565.691 562.429 572.36 561.443L626.994 549.598C636.248 547.525 645.428 545.008 654.756 543.231C659.504 542.306 664.298 541.639 669.118 541.232C669.859 538.715 670.525 536.124 671.191 533.829C652.906 537.308 634.176 539.307 615.964 542.417C595.605 545.896 575.543 550.486 555.184 553.892C557.553 527.61 556.591 495.481 539.49 473.864C537.268 470.721 534.44 468.054 531.173 466.02C527.905 463.985 524.264 462.625 520.463 462.019C516.722 461.883 512.992 462.501 509.494 463.836C505.997 465.172 502.803 467.197 500.105 469.792C475.23 491.113 465.754 545.822 463.089 577.285C453.169 577.285 443.175 577.878 433.477 578.174C413.488 578.84 393.5 579.58 373.437 579.877C304.032 581.227 234.614 578.012 165.631 570.252C156.821 569.216 135.056 567.735 128.615 564.182C125.136 562.331 123.951 556.779 122.841 553.151C118.877 538.419 117.254 523.155 118.029 507.918C118.695 495.407 121.064 479.564 130.91 470.902C129.767 472.936 129.038 475.175 128.764 477.491C128.739 479.444 129.121 481.381 129.886 483.178C130.65 484.975 131.781 486.593 133.205 487.93C144.384 499.256 163.262 500.737 178.142 500.663C170.625 487.303 161.142 475.15 150.011 464.61C163.438 458.136 177.41 452.859 191.764 448.841C210.214 444.325 228.932 440.987 247.806 438.847C323.614 428.482 404.53 428.704 480.931 432.11C494.404 432.702 507.804 434.109 521.278 434.775L463.904 448.175C416.894 458.613 345.453 472.531 308.438 504.068C317.969 502.946 327.569 502.525 337.162 502.81C354.633 502.292 372.031 501.625 389.502 500.515C395.744 500.683 401.988 500.286 408.158 499.33C430.738 494.074 444.211 467.571 463.163 456.762C471.286 452.324 479.783 448.608 488.556 445.658C495.959 443.141 503.955 440.994 511.728 438.995C516.17 437.81 520.908 436.922 525.202 435.367C527.171 434.723 529.003 433.719 530.606 432.406C535.751 426.512 540.015 419.904 543.265 412.788C550.259 398.686 559.151 385.609 569.695 373.921C553.63 372.811 537.713 371.034 521.574 370.22C473.106 367.572 424.496 369.53 376.398 376.068C404.234 365.778 435.253 366.296 464.57 365.482Z" fill="white"/>
<path d="M684.591 436.626H685.257C680.723 439 675.961 440.91 671.043 442.326C664.38 444.917 657.495 448.841 650.684 450.84C645.132 452.469 639.358 453.727 633.731 455.208C623.811 457.873 613.891 460.686 604.119 463.721C600.675 464.448 597.286 465.413 593.976 466.609L593.31 466.979L592.94 466.535H592.126L598.196 464.092C615.742 458.021 633.065 451.432 650.388 444.843C648.834 442.548 646.761 440.402 644.984 438.181C647.466 439.956 649.705 442.046 651.647 444.399C662.381 442.4 673.338 439.365 684.591 436.626Z" fill="#19223C"/>
<path d="M121.148 502.446C122.777 506.443 121.148 512.44 124.331 518.511C127.885 525.914 134.918 529.319 138.767 535.834C141.319 541.45 143.135 547.372 144.172 553.453C139.359 552.787 132.03 552.639 128.625 548.715C121 540.646 120.334 513.402 121.148 502.446Z" fill="#182743"/>
<path d="M129.366 536.566C132.623 538.639 132.031 543.229 136.769 546.634C134.49 546.459 132.296 545.693 130.402 544.413C129.902 541.82 129.555 539.2 129.366 536.566Z" fill="white"/>
<path d="M445.253 518.291H445.845C445.845 520.438 441.625 524.88 440.367 526.878C436.576 535 432.171 542.821 427.189 550.272C425.003 552.904 422.208 554.962 419.046 556.269C399.712 560.346 380.122 563.091 360.413 564.486H359.821C372.522 560.952 385.006 556.675 397.206 551.679C400.612 544.72 403.869 537.613 407.719 530.876C420.008 525.916 432.89 522.659 445.253 518.291Z" fill="#0A1934"/>
<path d="M585.985 378.812C592.247 378.446 598.523 379.25 604.492 381.181C606.985 381.616 609.356 382.575 611.451 383.994C618.262 389.398 624.925 408.128 628.034 416.494C628.926 419.752 630.167 422.904 631.736 425.896L632.18 426.636H632.55C634.179 418.27 620.039 392.285 615.375 384.956C630.625 392.359 657.943 409.609 665.568 424.637C666.012 425.525 666.086 425.303 665.568 426.266C658.535 426.636 651.503 427.82 644.544 428.635C624.91 431.494 605.142 433.348 585.318 434.187L578.581 450.548C575.472 450.548 572.289 450.992 569.105 451.288C569.504 446.02 570.346 440.795 571.622 435.668C565.404 435.668 559.259 436.186 553.041 436.408C554.351 420.996 559.271 406.109 567.403 392.952C569.307 389.402 571.951 386.302 575.157 383.863C578.363 381.423 582.055 379.701 585.985 378.812Z" fill="#0A1934"/>
<path d="M606.853 421.456C609.602 421.049 612.395 421.049 615.144 421.456C615.858 421.557 616.536 421.833 617.117 422.259C617.698 422.685 618.165 423.249 618.476 423.899C618.92 424.64 618.476 424.788 618.476 425.528C613.145 429.008 593.823 427.527 587.457 426.565C581.09 425.602 576.722 424.862 571.466 423.529C576.426 423.011 581.608 423.159 586.642 422.863C593.305 422.567 600.042 421.901 606.853 421.456Z" fill="white"/>
<path d="M588.344 383.173C595.066 383.113 601.742 384.293 608.036 386.653C615.236 397.401 619.568 409.812 620.622 422.706C619.804 421.795 618.913 420.953 617.957 420.189C607.592 413.378 593.822 415.895 582.422 418.042C578.59 418.951 574.809 420.063 571.095 421.373C570.281 425.629 570.281 430 571.095 434.255L559.546 434.699C560.725 420.077 565.535 405.98 573.538 393.686C575.161 391.018 577.311 388.71 579.857 386.903C582.403 385.095 585.291 383.826 588.344 383.173Z" fill="white"/>
<path d="M215.084 503.259H216.194C239.514 502.593 276.752 505.036 298.591 513.624C311.92 519.21 324.114 527.189 334.57 537.166C338.568 540.941 346.934 548.937 346.86 554.933C346.856 555.665 346.696 556.387 346.389 557.051C346.083 557.715 345.637 558.306 345.083 558.783C338.272 565.372 287.042 564.631 276.159 564.779C246.596 564.647 217.071 562.619 187.766 558.709C174.885 557.006 161.855 555.303 149.122 552.638C148.801 554.157 148.171 555.593 147.271 556.858L146.901 555.896L147.493 556.71L146.901 556.192V555.6C147.607 541.963 152.814 528.946 161.707 518.584C175.403 504.074 196.502 504 215.084 503.259Z" fill="#0A1934"/>
<path d="M156.298 541.911C172.881 544.65 189.834 545.835 206.565 547.167C229.811 549.092 253.279 550.721 276.599 551.165C291.405 551.165 305.767 551.165 320.351 551.165C326.986 550.655 333.654 550.778 340.266 551.535C340.753 551.627 341.21 551.837 341.597 552.147C341.984 552.457 342.29 552.857 342.487 553.312C342.585 554.354 342.324 555.399 341.746 556.273C327.421 557.545 313.024 557.817 298.66 557.087C279.856 557.087 261.126 555.977 242.396 554.94C218.558 553.534 194.868 551.831 171.252 548.129C166.175 548.011 161.16 546.983 156.446 545.094C155.853 543.984 156.076 543.392 156.298 541.911Z" fill="white"/>
<path d="M735.055 460.259L636.634 498.098L692.812 644.217L791.232 606.377L735.055 460.259Z" fill="#1A1F36"/>
<path d="M752.182 444.483L749.131 436.57C744.555 424.748 726.631 420.744 709.089 427.513L634.058 456.114C616.516 462.883 605.456 477.946 610.509 489.768L613.56 497.586C615.181 501.876 621.759 503.402 628.147 500.923L743.601 456.305C749.989 454.589 753.803 449.154 752.182 444.483Z" fill="#35405C"/>
<path d="M743.407 429.62C738.254 426.57 732.437 424.821 726.458 424.522C720.478 424.223 714.516 425.384 709.085 427.904L634.054 456.505C628.346 458.285 623.159 461.43 618.939 465.666C614.72 469.902 611.596 475.102 609.838 480.816L743.407 429.62Z" fill="#21253D"/>
<path d="M813.285 601.878L816.336 609.886C820.817 621.708 810.234 636.867 792.501 643.636L716.803 672.238C699.07 679.007 681.051 674.907 676.475 662.704L673.424 654.791C671.803 650.405 675.616 645.257 682.099 642.492L798.603 597.874C804.991 596.062 811.473 597.588 813.285 601.878Z" fill="#35405C"/>
<path d="M816.917 619.24C815.101 624.981 811.925 630.198 807.659 634.448C803.392 638.697 798.163 641.853 792.415 643.646L716.716 672.248C711.214 674.701 705.21 675.815 699.194 675.5C693.179 675.185 687.324 673.45 682.108 670.436L816.917 619.24Z" fill="#21253D"/>
<path d="M796.515 584.82L789.651 572.521C774.325 545.142 763.022 515.698 756.092 485.096L753.232 472.321L631.104 519.323L641.686 535.721C656.596 558.855 666.561 584.822 670.955 611.991L674.387 632.298L796.515 584.82Z" fill="#EB5D1D"/>
<path d="M651.21 539.832C664.064 559.695 672.696 581.989 676.569 605.33V605.997C678.186 605.326 679.842 604.752 681.527 604.281C677.326 582.267 668.945 561.263 656.835 542.406L647.301 528.201L748.264 489.398L747.215 485.013L641.581 525.627L651.21 539.832Z" fill="white"/>
<path d="M1129.53 416.358L821.109 522.66L816.437 502.162L1115.42 378.794C1134.49 370.977 1141.83 376.22 1145.93 386.707C1150.03 397.195 1149.17 409.398 1129.53 416.358Z" fill="#21253D"/>
<path d="M827.99 537.732C825.32 538.781 821.603 535.54 818.933 530.296C808.065 543.357 792.62 554.035 776.031 550.889L773.838 545.931L763.542 519.809L761.825 514.661C772.217 501.218 790.999 498.93 807.874 501.504C806.253 495.688 806.92 490.635 809.59 489.587C812.736 488.443 817.312 492.923 819.886 499.692L828.944 523.241C831.518 530.105 831.136 536.493 827.99 537.732Z" fill="#131428"/>
<path d="M748.345 466.282L630.615 511.545C628.108 512.509 626.857 515.322 627.821 517.829L627.855 517.918C628.819 520.424 631.632 521.675 634.138 520.711L751.869 475.448C754.376 474.484 755.627 471.671 754.663 469.164L754.629 469.076C753.665 466.569 750.852 465.318 748.345 466.282Z" fill="#35405C"/>
<path d="M791.21 577.728L673.479 622.992C670.973 623.955 669.722 626.768 670.686 629.275L670.72 629.364C671.684 631.87 674.497 633.121 677.003 632.157L794.734 586.894C797.241 585.93 798.492 583.117 797.528 580.611L797.494 580.522C796.53 578.015 793.717 576.765 791.21 577.728Z" fill="#35405C"/>
<path d="M201.157 735.276H226.648L256.284 832.301H233.704L221.355 783.347C218.798 773.645 216.24 762.266 213.682 752.123H213.153C210.859 762.354 208.301 773.645 205.743 783.347L193.307 832.301H171.52L201.157 735.276ZM191.013 791.903H236.438V808.926H191.013V791.903Z" fill="white"/>
<path d="M269.785 787.139V735.275H290.866V789.256C290.866 808.22 296.688 814.747 307.184 814.747C317.68 814.747 323.943 808.22 323.943 789.256V735.275H344.494V787.139C344.494 819.598 331.617 833.711 307.184 833.711C282.751 833.711 269.785 819.598 269.785 787.139Z" fill="white"/>
<path d="M367.43 784.149C367.43 752.131 388.158 733.52 411.973 733.52C417.381 733.533 422.728 734.651 427.688 736.804C432.648 738.958 437.115 742.103 440.816 746.045L429.526 760.07C427.409 757.732 424.84 755.847 421.975 754.528C419.11 753.209 416.008 752.484 412.855 752.396C399.977 752.396 389.746 764.039 389.746 783.444C389.746 802.849 398.566 814.845 412.503 814.845C416.042 814.788 419.527 813.97 422.723 812.449C425.919 810.927 428.751 808.736 431.026 806.024L442.227 819.696C438.559 824.21 433.915 827.833 428.644 830.293C423.373 832.753 417.613 833.985 411.797 833.897C387.364 833.367 367.43 816.697 367.43 784.149Z" fill="white"/>
<path d="M478.21 753.975H452.19V735.276H525.488V753.975H499.556V832.301H478.21V753.975Z" fill="white"/>
<path d="M545.6 735.275H566.945V832.3H545.6V735.275Z" fill="white"/>
<path d="M590.15 783.179C590.15 751.602 607.791 733.52 633.017 733.52C658.244 733.52 675.885 751.778 675.885 783.179C675.885 814.58 658.244 833.72 633.017 833.72C607.791 833.72 590.15 814.756 590.15 783.179ZM654.01 783.179C654.01 763.774 645.895 752.396 633.017 752.396C620.139 752.396 612.025 763.774 612.025 783.179C612.025 802.584 620.139 814.845 633.017 814.845C645.895 814.845 654.01 802.584 654.01 783.179Z" fill="white"/>
<path d="M698.99 735.275H720.865L745.562 783.346L754.823 804.604H755.441C754.47 794.372 752.706 780.788 752.706 769.322V735.275H773.081V832.3H751.207L726.51 784.052L717.689 762.971H717.072C718.042 773.644 719.806 786.61 719.806 798.253V832.564H699.431L698.99 735.275Z" fill="white"/>
<path d="M794.605 819.792L806.866 804.797C813.169 810.728 821.339 814.283 829.975 814.853C838.796 814.853 843.294 811.236 843.294 805.503C843.294 799.77 837.914 797.476 829.711 794.036L817.45 788.656C811.904 786.784 807.079 783.229 803.648 778.486C800.217 773.743 798.351 768.048 798.31 762.195C798.31 746.23 812.334 733.44 832.004 733.44C843.382 733.495 854.282 738.026 862.346 746.053L851.585 759.901C846.177 755.109 839.229 752.417 832.004 752.316C824.594 752.316 819.92 755.403 819.92 761.136C819.92 766.869 826.094 769.251 834.385 772.603L846.381 777.542C851.99 779.257 856.87 782.786 860.254 787.576C863.639 792.366 865.337 798.144 865.08 804.004C865.08 820.057 852.026 833.993 829.799 833.993C816.686 833.92 804.097 828.84 794.605 819.792Z" fill="white"/>
<path d="M384 225.989C384 193.971 404.728 175.36 428.102 175.36C433.511 175.363 438.862 176.476 443.823 178.63C448.784 180.785 453.251 183.935 456.945 187.885L445.743 201.91C443.616 199.584 441.046 197.707 438.183 196.389C435.32 195.071 432.222 194.339 429.072 194.236C416.106 194.236 405.875 205.879 405.875 225.284C405.875 244.689 414.695 256.685 428.719 256.685C432.246 256.627 435.718 255.809 438.9 254.286C442.081 252.764 444.897 250.574 447.154 247.864L458.445 261.536C454.767 266.062 450.109 269.692 444.821 272.153C439.534 274.613 433.756 275.839 427.926 275.737C404.022 275.208 384 258.537 384 225.989Z" fill="#0A1934"/>
<path d="M495.686 177.115H521.177L550.814 274.14H528.234L515.885 225.186C513.327 215.484 510.769 204.106 508.211 193.962H507.682C505.389 204.194 502.831 215.484 500.273 225.186L487.836 274.14H465.785L495.686 177.115ZM485.543 233.742H530.968V250.766H485.543V233.742Z" fill="#0A1934"/>
<path d="M565.185 177.115H599.232C619.254 177.115 635.661 184.26 635.661 207.193C635.661 230.126 619.254 238.946 599.232 238.946H586.531V274.228H565.185V177.115ZM597.468 221.658C608.67 221.658 615.109 216.719 615.109 207.193C615.109 197.667 609.023 194.491 597.468 194.491H586.531V221.658H597.468ZM595.351 233.213L610.081 219.277L640.159 273.787H616.344L595.351 233.213Z" fill="#0A1934"/>
</g>
<defs>
<clipPath id="clip0_1567_67">
<rect width="1024" height="1024" fill="white"/>
</clipPath>
</defs>
</svg>
